<svg width="155" height="32" viewBox="0 0 155 32" fill="none" xmlns="http://www.w3.org/2000/svg">
<path d="M26.9157 0L20.6458 6.26991H6.26991V20.6457L0 26.9157V6.86259C0 3.07226 3.07223 0 6.86257 0H26.9168H26.9157Z" fill="#080808"/>
<path d="M31.3501 4.4342V24.4885C31.3501 28.2788 28.2779 31.3511 24.4875 31.3511H4.43329L6.26931 29.515L10.7032 25.0811H25.079V18.8112H16.9731L18.8091 16.9752L23.243 12.5413L25.079 10.7053L29.5129 6.27141L31.3489 4.43539L31.3501 4.4342Z" fill="#61B6E0"/>
<path d="M47.1623 25.5137C44.0628 23.6481 42.2433 20.1784 42.2433 15.6901C42.2433 13.4234 42.6751 11.449 43.5387 9.76796C45.2659 6.39049 48.473 4.43262 52.5449 4.43262H53.0229C55.0742 4.43262 56.8783 4.89517 58.4351 5.83566C60.2699 6.92993 61.6422 8.5956 62.475 10.7084L58.7119 12.1269C57.5088 9.52071 55.6278 8.25608 52.9909 8.25608H52.513C51.2637 8.25608 50.1541 8.54946 49.197 9.15043C47.2853 10.3382 46.2513 12.6048 46.2513 15.6889C46.2513 17.2161 46.4986 18.5269 47.0073 19.6366C48.0093 21.8571 49.9991 23.0909 52.513 23.0909H52.9909C54.3017 23.0909 55.4279 22.7822 56.3684 22.1812C57.4011 21.5175 58.1878 20.5309 58.6811 19.2663L58.7119 18.0632H52.1888V14.4858H62.5366V26.4838H58.6811V25.3422C57.0924 26.3596 55.1806 26.9156 53.0217 26.9156H52.5437C50.5078 26.9156 48.7191 26.453 47.1623 25.5125V25.5137Z" fill="#080808"/>
<path d="M65.4981 11.2182H69.3535V12.8224C70.294 11.4655 71.9905 10.9106 73.4242 10.9106C74.1956 10.9106 74.8888 11.0491 75.5986 11.3732L74.4724 15.2286C74.0252 14.9814 73.2539 14.7353 72.5606 14.7353C71.5125 14.7353 70.2479 15.1671 69.6303 16.8635C69.5534 17.1569 69.4765 17.5118 69.4304 17.959C69.3843 18.4061 69.3535 19.0379 69.3535 19.8861V26.4245H65.4981V11.2182Z" fill="#080808"/>
<path d="M88.9697 25.7438C87.6897 26.4382 86.3942 26.7304 84.6209 26.7304H84.1891C78.9461 26.7304 76.3707 22.998 76.3707 18.8966C76.3707 14.7951 78.9307 10.9089 83.9419 10.9089H84.3737C89.0619 10.9089 91.4362 14.271 91.4362 18.6813C91.4362 18.9746 91.4208 19.5295 91.3439 20.0997H80.1941C80.3941 22.274 82.2609 23.4003 84.4045 23.4003H84.8363C86.2393 23.4003 87.6116 22.9377 88.7224 22.1049L91.0044 24.3869C90.2792 24.9417 89.6014 25.3889 88.9685 25.7438H88.9697ZM87.7973 17.2628V17.2321C87.7973 15.3972 86.3943 14.1172 84.466 14.1172H84.0342C83.2782 14.1172 82.307 14.271 81.7983 14.5798C80.7655 15.1961 80.2876 16.2301 80.1634 17.2628H87.7973Z" fill="#080808"/>
<path d="M93.8114 21.735C93.8114 19.9617 94.5981 18.6971 95.7858 18.0334C96.8186 17.4171 98.0832 17.2775 99.5181 17.2006L104.577 16.9226V16.8303C104.577 15.0262 103.358 14.1473 100.752 14.1473C99.1479 14.1473 97.3745 14.8109 96.0945 15.9667L94.1521 13.3452C96.2957 11.618 98.47 10.9082 101.061 10.9082C105.934 10.9082 108.401 13.1287 108.401 16.8303V26.4221H104.623V24.4796C104.546 24.5873 104.469 24.6949 104.377 24.8037C103.281 26.1453 101.17 26.7309 99.6116 26.7309C96.1419 26.7309 93.8137 24.6334 93.8137 21.7339L93.8114 21.735ZM100.165 23.6468C102.925 23.6468 104.575 22.1976 104.575 20.1616V19.7606L100.073 20.0386C99.4105 20.0847 98.7314 20.1001 98.2843 20.4704C97.8678 20.7638 97.6679 21.1956 97.6679 21.735C97.6679 22.892 98.6392 23.6468 100.166 23.6468H100.165Z" fill="#080808"/>
<path d="M113.364 21.5182V14.826H110.002V11.2178H113.364V4.57056H117.112V11.2178H120.643V14.826H117.112V21.5182C117.112 22.829 119.054 22.8136 120.628 22.0577V26.1911C119.902 26.4999 119.1 26.6229 118.33 26.6229H118.13C115.277 26.6229 113.365 24.8188 113.365 21.5182H113.364Z" fill="#080808"/>
<path d="M126.331 25.713C124.033 24.3561 122.598 21.8422 122.598 18.8043C122.598 17.2617 122.922 15.9048 123.585 14.7182C124.896 12.3593 127.317 10.9089 130.277 10.9089H130.755C132.22 10.9089 133.515 11.2485 134.672 11.9263C136.969 13.2832 138.374 15.7202 138.374 18.8043C138.374 20.3315 138.049 21.6884 137.387 22.875C136.076 25.2658 133.67 26.7304 130.756 26.7304H130.278C128.798 26.7304 127.488 26.3909 126.331 25.713ZM130.278 23.3695H130.756C133.069 23.3695 134.519 21.6731 134.519 18.8043C134.519 15.9355 133.086 14.271 130.756 14.271H130.278C127.887 14.271 126.423 15.9213 126.423 18.8043C126.423 21.6873 127.918 23.3695 130.278 23.3695Z" fill="#080808"/>
<path d="M141.181 11.2178H145.037V12.5132C146.178 11.4804 147.658 10.9091 149.262 10.9091H149.479C152.933 10.9091 155 12.9604 155 16.4916V26.4229H151.144V17.9101C151.144 15.3654 150.266 14.2404 148.338 14.2404C147.598 14.2404 146.982 14.4096 146.504 14.7491C145.532 15.4281 145.039 16.8465 145.039 19.1439V26.4229H141.184V11.2178H141.181Z" fill="#080808"/>
</svg>
