<svg width="113" height="23" viewBox="0 0 113 23" fill="none" xmlns="http://www.w3.org/2000/svg">
<path d="M4.91893 21.0811C1.81947 19.2155 0 15.7458 0 11.2574C0 8.99082 0.431761 7.01638 1.29535 5.33534C3.02254 1.95787 6.2297 0 10.3016 0H10.7795C12.8309 0 14.6349 0.462554 16.1918 1.40304C18.0266 2.49732 19.3989 4.16298 20.2317 6.27582L16.4686 7.69424C15.2655 5.08809 13.3845 3.82346 10.7476 3.82346H10.2696C9.0204 3.82346 7.91071 4.11685 6.95366 4.71781C5.04193 5.90555 4.008 8.17218 4.008 11.2563C4.008 12.7835 4.25526 14.0943 4.76395 15.2039C5.76595 17.4244 7.75577 18.6583 10.2696 18.6583H10.7476C12.0584 18.6583 13.1845 18.3495 14.125 17.7486C15.1578 17.0849 15.9445 16.0983 16.4378 14.8337L16.4686 13.6305H9.94548V10.0532H20.2932V22.0512H16.4378V20.9096C14.849 21.9269 12.9373 22.483 10.7783 22.483H10.3004C8.26443 22.483 6.47576 22.0204 4.91893 21.0799V21.0811Z" fill="#080808"/>
<path d="M23.2548 6.78512H27.1102V8.38927C28.0507 7.03237 29.7471 6.47754 31.1809 6.47754C31.9522 6.47754 32.6454 6.61595 33.3552 6.94009L32.229 10.7955C31.7819 10.5482 31.0105 10.3022 30.3173 10.3022C29.2691 10.3022 28.0045 10.734 27.387 12.4304C27.3101 12.7238 27.2332 13.0787 27.1871 13.5259C27.1409 13.973 27.1102 14.6048 27.1102 15.453V21.9914H23.2548V6.78512Z" fill="#080808"/>
<path d="M46.7263 21.3114C45.4463 22.0058 44.1509 22.298 42.3776 22.298H41.9458C36.7027 22.298 34.1273 18.5657 34.1273 14.4642C34.1273 10.3627 36.6874 6.47656 41.6986 6.47656H42.1303C46.8186 6.47656 49.1929 9.83865 49.1929 14.2489C49.1929 14.5423 49.1775 15.0971 49.1006 15.6673H37.9508C38.1507 17.8417 40.0175 18.9679 42.1611 18.9679H42.5929C43.996 18.9679 45.3683 18.5053 46.4791 17.6725L48.7611 19.9545C48.0359 20.5093 47.358 20.9565 46.7251 21.3114H46.7263ZM45.5539 12.8305V12.7997C45.5539 10.9649 44.1509 9.68486 42.2227 9.68486H41.7908C41.0349 9.68486 40.0636 9.83865 39.5549 10.1474C38.5222 10.7638 38.0443 11.7977 37.9201 12.8305H45.5539Z" fill="#080808"/>
<path d="M51.568 17.3024C51.568 15.5291 52.3547 14.2645 53.5424 13.6008C54.5752 12.9845 55.8398 12.8449 57.2748 12.768L62.3333 12.49V12.3977C62.3333 10.5936 61.1148 9.71464 58.5087 9.71464C56.9045 9.71464 55.1312 10.3783 53.8512 11.5341L51.9087 8.91257C54.0523 7.18539 56.2267 6.47559 58.8174 6.47559C63.6902 6.47559 66.1579 8.69608 66.1579 12.3977V21.9895H62.3794V20.047C62.3025 20.1546 62.2256 20.2623 62.1334 20.3711C61.0379 21.7127 58.9263 22.2982 57.3683 22.2982C53.8985 22.2982 51.5703 20.2008 51.5703 17.3012L51.568 17.3024ZM57.9219 19.2142C60.6819 19.2142 62.3321 17.765 62.3321 15.729V15.328L57.8296 15.606C57.1671 15.6521 56.4881 15.6675 56.0409 16.0378C55.6245 16.3312 55.4246 16.763 55.4246 17.3024C55.4246 18.4594 56.3958 19.2142 57.9231 19.2142H57.9219Z" fill="#080808"/>
<path d="M71.1206 17.0854V10.3931H67.7585V6.78498H71.1206V0.137695H74.8683V6.78498H78.3996V10.3931H74.8683V17.0854C74.8683 18.3961 76.8108 18.3808 78.3842 17.6248V21.7582C77.659 22.067 76.8569 22.19 76.0868 22.19H75.8869C73.0335 22.19 71.1218 20.386 71.1218 17.0854H71.1206Z" fill="#080808"/>
<path d="M84.0873 21.2806C81.7899 19.9237 80.3549 17.4099 80.3549 14.3719C80.3549 12.8293 80.6791 11.4724 81.3416 10.2858C82.6523 7.92692 85.0739 6.47656 88.0338 6.47656H88.5117C89.9763 6.47656 91.2716 6.81608 92.4286 7.49394C94.726 8.85085 96.1302 11.2878 96.1302 14.3719C96.1302 15.8992 95.8061 17.2561 95.1436 18.4426C93.8329 20.8335 91.4266 22.298 88.5129 22.298H88.035C86.5551 22.298 85.2443 21.9585 84.0873 21.2806ZM88.035 18.9371H88.5129C90.8256 18.9371 92.276 17.2407 92.276 14.3719C92.276 11.5031 90.8422 9.83865 88.5129 9.83865H88.035C85.6441 9.83865 84.1795 11.4889 84.1795 14.3719C84.1795 17.2549 85.6749 18.9371 88.035 18.9371Z" fill="#080808"/>
<path d="M98.9379 6.78533H102.793V8.08071C103.935 7.04795 105.415 6.47656 107.019 6.47656H107.235C110.69 6.47656 112.757 8.52789 112.757 12.0591V21.9904H108.901V13.4776C108.901 10.9329 108.022 9.8079 106.095 9.8079C105.355 9.8079 104.738 9.97707 104.26 10.3166C103.289 10.9956 102.796 12.414 102.796 14.7114V21.9904H98.9403V6.78533H98.9379Z" fill="#080808"/>
</svg>
